<svg width="16" height="20" viewBox="0 0 16 20" fill="none" xmlns="http://www.w3.org/2000/svg">
<path opacity="0.7" d="M10.5 16C10.9167 16 11.2708 15.8542 11.5625 15.5625C11.8542 15.2708 12 14.9167 12 14.5C12 14.0833 11.8542 13.7292 11.5625 13.4375C11.2708 13.1458 10.9167 13 10.5 13C10.0833 13 9.72917 13.1458 9.4375 13.4375C9.14583 13.7292 9 14.0833 9 14.5C9 14.9167 9.14583 15.2708 9.4375 15.5625C9.72917 15.8542 10.0833 16 10.5 16ZM5.45 15.95L11.95 9.45L10.55 8.05L4.05 14.55L5.45 15.95ZM5.5 11C5.91667 11 6.27083 10.8542 6.5625 10.5625C6.85417 10.2708 7 9.91667 7 9.5C7 9.08333 6.85417 8.72917 6.5625 8.4375C6.27083 8.14583 5.91667 8 5.5 8C5.08333 8 4.72917 8.14583 4.4375 8.4375C4.14583 8.72917 4 9.08333 4 9.5C4 9.91667 4.14583 10.2708 4.4375 10.5625C4.72917 10.8542 5.08333 11 5.5 11ZM8 20C5.71667 20 3.8125 19.2167 2.2875 17.65C0.7625 16.0833 0 14.1333 0 11.8C0 10.1333 0.6625 8.32083 1.9875 6.3625C3.3125 4.40417 5.31667 2.28333 8 0C10.6833 2.28333 12.6875 4.40417 14.0125 6.3625C15.3375 8.32083 16 10.1333 16 11.8C16 14.1333 15.2375 16.0833 13.7125 17.65C12.1875 19.2167 10.2833 20 8 20ZM8 18C9.73333 18 11.1667 17.4125 12.3 16.2375C13.4333 15.0625 14 13.5833 14 11.8C14 10.5833 13.4958 9.20833 12.4875 7.675C11.4792 6.14167 9.98333 4.46667 8 2.65C6.01667 4.46667 4.52083 6.14167 3.5125 7.675C2.50417 9.20833 2 10.5833 2 11.8C2 13.5833 2.56667 15.0625 3.7 16.2375C4.83333 17.4125 6.26667 18 8 18Z" fill="#00450D"/>
</svg>
