<svg width="15" height="13" viewBox="0 0 15 13" fill="none" xmlns="http://www.w3.org/2000/svg">
<path d="M7.125 12.75C6.5 12.75 5.96875 12.5312 5.53125 12.0938C5.09375 11.6562 4.875 11.125 4.875 10.5H6.375C6.375 10.7125 6.44687 10.8906 6.59062 11.0344C6.73438 11.1781 6.9125 11.25 7.125 11.25C7.3375 11.25 7.51562 11.1781 7.65938 11.0344C7.80313 10.8906 7.875 10.7125 7.875 10.5C7.875 10.2875 7.80313 10.1094 7.65938 9.96562C7.51562 9.82187 7.3375 9.75 7.125 9.75H0V8.25H7.125C7.75 8.25 8.28125 8.46875 8.71875 8.90625C9.15625 9.34375 9.375 9.875 9.375 10.5C9.375 11.125 9.15625 11.6562 8.71875 12.0938C8.28125 12.5312 7.75 12.75 7.125 12.75ZM0 5.25V3.75H10.125C10.45 3.75 10.7188 3.64375 10.9312 3.43125C11.1437 3.21875 11.25 2.95 11.25 2.625C11.25 2.3 11.1437 2.03125 10.9312 1.81875C10.7188 1.60625 10.45 1.5 10.125 1.5C9.8 1.5 9.53125 1.60625 9.31875 1.81875C9.10625 2.03125 9 2.3 9 2.625H7.5C7.5 1.8875 7.75312 1.26562 8.25937 0.759375C8.76562 0.253125 9.3875 0 10.125 0C10.8625 0 11.4844 0.253125 11.9906 0.759375C12.4969 1.26562 12.75 1.8875 12.75 2.625C12.75 3.3625 12.4969 3.98438 11.9906 4.49062C11.4844 4.99687 10.8625 5.25 10.125 5.25H0ZM12.375 11.25V9.75C12.7 9.75 12.9688 9.64375 13.1812 9.43125C13.3937 9.21875 13.5 8.95 13.5 8.625C13.5 8.3 13.3937 8.03125 13.1812 7.81875C12.9688 7.60625 12.7 7.5 12.375 7.5H0V6H12.375C13.1125 6 13.7344 6.25313 14.2406 6.75938C14.7469 7.26562 15 7.8875 15 8.625C15 9.3625 14.7469 9.98438 14.2406 10.4906C13.7344 10.9969 13.1125 11.25 12.375 11.25Z" fill="#41493E"/>
</svg>
